<?xml version="1.0" standalone="no"?><!DOCTYPE svg PUBLIC "-//W3C//DTD SVG 1.1//EN" "http://www.w3.org/Graphics/SVG/1.1/DTD/svg11.dtd"><svg t="1737622643626" class="icon" viewBox="0 0 1024 1024" version="1.1" xmlns="http://www.w3.org/2000/svg" p-id="2453" xmlns:xlink="http://www.w3.org/1999/xlink" width="200" height="200"><path d="M512 320.042667a191.957333 191.957333 0 1 0 0 383.914666A191.957333 191.957333 0 0 0 512 320zM256.042667 512A255.957333 255.957333 0 1 1 768 512 255.957333 255.957333 0 0 1 256 512z" p-id="2454"></path><path d="M512 319.829333a192.170667 192.170667 0 0 0 0 384.341334V319.829333z" p-id="2455"></path><path d="M512 96a32 32 0 0 1 32 32v53.333333a32 32 0 0 1-64 0V128a32 32 0 0 1 32-32zM806.144 217.813333a32 32 0 0 1 0 45.269334l-37.717333 37.717333a32 32 0 0 1-45.226667-45.226667l37.674667-37.76a32 32 0 0 1 45.226666 0zM806.144 806.101333a32 32 0 0 1-45.226667 0l-37.76-37.717333a32 32 0 0 1 45.226667-45.226667l37.76 37.674667a32 32 0 0 1 0 45.226667zM928 512a32 32 0 0 1-32 32h-53.333333a32 32 0 0 1 0-64H896a32 32 0 0 1 32 32zM512 810.581333a32 32 0 0 1 32 32v53.333334a32 32 0 0 1-64 0v-53.333334a32 32 0 0 1 32-32zM300.8 723.114667a32 32 0 0 1 0 45.269333l-37.674667 37.717333a32 32 0 0 1-45.226666-45.226666l37.674666-37.76a32 32 0 0 1 45.226667 0zM300.8 300.8a32 32 0 0 1-45.226667 0l-37.717333-37.717333a32 32 0 1 1 45.269333-45.226667l37.717334 37.674667a32 32 0 0 1 0 45.269333zM213.333333 512a32 32 0 0 1-32 32H128a32 32 0 0 1 0-64h53.333333A32 32 0 0 1 213.333333 512z" p-id="2456"></path></svg>